G75*
%MOIN*%
%OFA0B0*%
%FSLAX24Y24*%
%IPPOS*%
%LPD*%
%AMOC8*
5,1,8,0,0,1.08239X$1,22.5*
%
%ADD10C,0.0160*%
%ADD11R,0.0520X0.0520*%
%ADD12C,0.0520*%
%ADD13OC8,0.0520*%
%ADD14C,0.0600*%
%ADD15OC8,0.0620*%
%ADD16C,0.0620*%
%ADD17C,0.1000*%
%ADD18OC8,0.1000*%
%ADD19C,0.0200*%
D10*
X002456Y018678D02*
X003070Y019291D01*
X002763Y019291D02*
X003684Y019291D01*
X003684Y018678D02*
X003684Y020519D01*
X002763Y020519D01*
X002456Y020212D01*
X002456Y019598D01*
X002763Y019291D01*
X004298Y019598D02*
X005526Y019598D01*
X005526Y019905D02*
X004912Y020519D01*
X004298Y019905D01*
X004298Y018678D01*
X005526Y018678D02*
X005526Y019905D01*
D11*
X017700Y017200D03*
D12*
X017700Y016200D03*
X017700Y015200D03*
X017700Y014200D03*
X017700Y013200D03*
X017700Y012200D03*
X017700Y011200D03*
X017700Y010200D03*
X017700Y009200D03*
X017700Y008200D03*
X017700Y007200D03*
X017700Y006200D03*
X017700Y005200D03*
X017700Y004200D03*
X020700Y004200D03*
X020700Y005200D03*
X020700Y006200D03*
X020700Y007200D03*
X020700Y008200D03*
X020700Y009200D03*
X020700Y010200D03*
X020700Y011200D03*
X020700Y012200D03*
X020700Y013200D03*
X020700Y014200D03*
X020700Y015200D03*
X020700Y016200D03*
X020700Y017200D03*
D13*
X022200Y014200D03*
X027200Y014200D03*
X013200Y013700D03*
X011700Y013700D03*
X010200Y013700D03*
X010200Y008700D03*
X011700Y008700D03*
X013200Y008700D03*
D14*
X004000Y009700D02*
X003400Y009700D01*
X003400Y010700D02*
X004000Y010700D01*
X004000Y011700D02*
X003400Y011700D01*
X003400Y012700D02*
X004000Y012700D01*
X025388Y008204D02*
X025988Y008204D01*
X025988Y007204D02*
X025388Y007204D01*
X025388Y006204D02*
X025988Y006204D01*
X025988Y005204D02*
X025388Y005204D01*
X025388Y004204D02*
X025988Y004204D01*
X025988Y003204D02*
X025388Y003204D01*
X034200Y013900D02*
X034200Y014500D01*
X035200Y014500D02*
X035200Y013900D01*
X036200Y013900D02*
X036200Y014500D01*
X029000Y014200D02*
X028400Y014200D01*
X028400Y015200D02*
X029000Y015200D01*
X029000Y016200D02*
X028400Y016200D01*
X028400Y017200D02*
X029000Y017200D01*
X029000Y018200D02*
X028400Y018200D01*
X028400Y019200D02*
X029000Y019200D01*
D15*
X030700Y010700D03*
X030700Y008200D03*
D16*
X030700Y007200D03*
X030700Y011700D03*
D17*
X036700Y008200D03*
D18*
X034700Y008200D03*
D19*
X010200Y006700D02*
X008700Y008200D01*
X002700Y008200D01*
X002200Y008700D01*
X002200Y012200D01*
X002700Y012700D01*
X003700Y012700D01*
X003200Y012700D01*
X003700Y012700D02*
X023700Y012700D01*
X024200Y012200D01*
X024200Y009700D01*
X023700Y009200D01*
X020700Y009200D01*
X019200Y009700D02*
X018200Y010700D01*
X003700Y010700D01*
X003700Y009700D02*
X009200Y009700D01*
X012700Y009700D01*
X013200Y009200D01*
X013200Y008700D01*
X016200Y008700D01*
X017700Y010200D01*
X019200Y009700D02*
X022700Y009700D01*
X023200Y010200D01*
X023200Y010700D01*
X022700Y011200D01*
X020700Y011200D01*
X020700Y010200D02*
X019200Y011700D01*
X003700Y011700D01*
X009200Y009700D02*
X010200Y008700D01*
X011200Y007700D01*
X019700Y007700D01*
X020200Y008200D01*
X020700Y008200D01*
X025200Y008200D01*
X025688Y008204D01*
X025700Y008200D01*
X028700Y008200D01*
X030700Y008200D01*
X034700Y008200D01*
X034700Y008700D01*
X035200Y009200D01*
X035200Y014200D01*
X035200Y015200D01*
X034700Y015700D01*
X032700Y015700D01*
X029200Y019200D01*
X028700Y019200D01*
X028700Y018200D02*
X029200Y018200D01*
X033200Y014200D01*
X034200Y014200D01*
X034200Y013700D01*
X032200Y011700D01*
X030700Y011700D01*
X025700Y011700D01*
X025200Y011200D01*
X025200Y009200D01*
X024700Y008700D01*
X017200Y008700D01*
X016700Y008200D01*
X012200Y008200D01*
X011700Y008700D01*
X010200Y006700D02*
X015700Y006700D01*
X016700Y005700D01*
X019200Y005700D01*
X020200Y004700D01*
X023200Y004700D01*
X023700Y004200D01*
X027700Y004200D01*
X028200Y004700D01*
X028200Y006700D01*
X028700Y007200D01*
X030700Y007200D01*
X036200Y007200D01*
X036700Y007700D01*
X036700Y008200D01*
X036700Y008700D01*
X036200Y009200D01*
X036200Y014200D01*
X030700Y010700D02*
X030700Y008200D01*
X028700Y008200D02*
X027200Y006700D01*
X027200Y005700D01*
X026700Y005200D01*
X025700Y005200D01*
X025688Y005204D01*
X024700Y005700D02*
X025200Y006200D01*
X025688Y006204D01*
X024700Y006700D02*
X015700Y006700D01*
X017700Y006200D02*
X019700Y006200D01*
X020200Y005700D01*
X024700Y005700D01*
X024700Y006700D02*
X025200Y007200D01*
X025688Y007204D01*
X025688Y004204D02*
X025700Y004200D01*
X025688Y003204D02*
X025200Y003200D01*
X019700Y003200D01*
X017700Y005200D01*
X015200Y013700D02*
X013200Y013700D01*
X011700Y013700D01*
X010200Y013700D01*
X015200Y013700D02*
X017700Y016200D01*
X020700Y016200D02*
X028700Y016200D01*
X028700Y015200D02*
X020700Y015200D01*
X020700Y014200D02*
X022200Y014200D01*
X027200Y014200D02*
X028700Y014200D01*
X028700Y017200D02*
X020700Y017200D01*
M02*
