G75*
%MOIN*%
%OFA0B0*%
%FSLAX24Y24*%
%IPPOS*%
%LPD*%
%AMOC8*
5,1,8,0,0,1.08239X$1,22.5*
%
%ADD10C,0.0000*%
%ADD11C,0.0060*%
%ADD12C,0.0030*%
%ADD13C,0.0080*%
%ADD14C,0.0240*%
%ADD15C,0.0050*%
%ADD16R,0.0240X0.0340*%
%ADD17R,0.0250X0.0900*%
%ADD18R,0.0340X0.0240*%
D10*
X000200Y000200D02*
X000200Y021854D01*
X039570Y021854D01*
X039570Y000200D01*
X000200Y000200D01*
X007287Y004924D02*
X007289Y004980D01*
X007295Y005035D01*
X007305Y005089D01*
X007318Y005143D01*
X007336Y005196D01*
X007357Y005247D01*
X007381Y005297D01*
X007409Y005345D01*
X007441Y005391D01*
X007475Y005435D01*
X007513Y005476D01*
X007553Y005514D01*
X007596Y005549D01*
X007641Y005581D01*
X007689Y005610D01*
X007738Y005636D01*
X007789Y005658D01*
X007841Y005676D01*
X007895Y005690D01*
X007950Y005701D01*
X008005Y005708D01*
X008060Y005711D01*
X008116Y005710D01*
X008171Y005705D01*
X008226Y005696D01*
X008280Y005684D01*
X008333Y005667D01*
X008385Y005647D01*
X008435Y005623D01*
X008483Y005596D01*
X008530Y005566D01*
X008574Y005532D01*
X008616Y005495D01*
X008654Y005455D01*
X008691Y005413D01*
X008724Y005368D01*
X008753Y005322D01*
X008780Y005273D01*
X008802Y005222D01*
X008822Y005170D01*
X008837Y005116D01*
X008849Y005062D01*
X008857Y005007D01*
X008861Y004952D01*
X008861Y004896D01*
X008857Y004841D01*
X008849Y004786D01*
X008837Y004732D01*
X008822Y004678D01*
X008802Y004626D01*
X008780Y004575D01*
X008753Y004526D01*
X008724Y004480D01*
X008691Y004435D01*
X008654Y004393D01*
X008616Y004353D01*
X008574Y004316D01*
X008530Y004282D01*
X008483Y004252D01*
X008435Y004225D01*
X008385Y004201D01*
X008333Y004181D01*
X008280Y004164D01*
X008226Y004152D01*
X008171Y004143D01*
X008116Y004138D01*
X008060Y004137D01*
X008005Y004140D01*
X007950Y004147D01*
X007895Y004158D01*
X007841Y004172D01*
X007789Y004190D01*
X007738Y004212D01*
X007689Y004238D01*
X007641Y004267D01*
X007596Y004299D01*
X007553Y004334D01*
X007513Y004372D01*
X007475Y004413D01*
X007441Y004457D01*
X007409Y004503D01*
X007381Y004551D01*
X007357Y004601D01*
X007336Y004652D01*
X007318Y004705D01*
X007305Y004759D01*
X007295Y004813D01*
X007289Y004868D01*
X007287Y004924D01*
X007287Y017129D02*
X007289Y017185D01*
X007295Y017240D01*
X007305Y017294D01*
X007318Y017348D01*
X007336Y017401D01*
X007357Y017452D01*
X007381Y017502D01*
X007409Y017550D01*
X007441Y017596D01*
X007475Y017640D01*
X007513Y017681D01*
X007553Y017719D01*
X007596Y017754D01*
X007641Y017786D01*
X007689Y017815D01*
X007738Y017841D01*
X007789Y017863D01*
X007841Y017881D01*
X007895Y017895D01*
X007950Y017906D01*
X008005Y017913D01*
X008060Y017916D01*
X008116Y017915D01*
X008171Y017910D01*
X008226Y017901D01*
X008280Y017889D01*
X008333Y017872D01*
X008385Y017852D01*
X008435Y017828D01*
X008483Y017801D01*
X008530Y017771D01*
X008574Y017737D01*
X008616Y017700D01*
X008654Y017660D01*
X008691Y017618D01*
X008724Y017573D01*
X008753Y017527D01*
X008780Y017478D01*
X008802Y017427D01*
X008822Y017375D01*
X008837Y017321D01*
X008849Y017267D01*
X008857Y017212D01*
X008861Y017157D01*
X008861Y017101D01*
X008857Y017046D01*
X008849Y016991D01*
X008837Y016937D01*
X008822Y016883D01*
X008802Y016831D01*
X008780Y016780D01*
X008753Y016731D01*
X008724Y016685D01*
X008691Y016640D01*
X008654Y016598D01*
X008616Y016558D01*
X008574Y016521D01*
X008530Y016487D01*
X008483Y016457D01*
X008435Y016430D01*
X008385Y016406D01*
X008333Y016386D01*
X008280Y016369D01*
X008226Y016357D01*
X008171Y016348D01*
X008116Y016343D01*
X008060Y016342D01*
X008005Y016345D01*
X007950Y016352D01*
X007895Y016363D01*
X007841Y016377D01*
X007789Y016395D01*
X007738Y016417D01*
X007689Y016443D01*
X007641Y016472D01*
X007596Y016504D01*
X007553Y016539D01*
X007513Y016577D01*
X007475Y016618D01*
X007441Y016662D01*
X007409Y016708D01*
X007381Y016756D01*
X007357Y016806D01*
X007336Y016857D01*
X007318Y016910D01*
X007305Y016964D01*
X007295Y017018D01*
X007289Y017073D01*
X007287Y017129D01*
X019080Y017700D02*
X019082Y017679D01*
X019087Y017659D01*
X019096Y017640D01*
X019108Y017623D01*
X019123Y017608D01*
X019140Y017596D01*
X019159Y017587D01*
X019179Y017582D01*
X019200Y017580D01*
X019221Y017582D01*
X019241Y017587D01*
X019260Y017596D01*
X019277Y017608D01*
X019292Y017623D01*
X019304Y017640D01*
X019313Y017659D01*
X019318Y017679D01*
X019320Y017700D01*
X036027Y019098D02*
X036029Y019154D01*
X036035Y019209D01*
X036045Y019263D01*
X036058Y019317D01*
X036076Y019370D01*
X036097Y019421D01*
X036121Y019471D01*
X036149Y019519D01*
X036181Y019565D01*
X036215Y019609D01*
X036253Y019650D01*
X036293Y019688D01*
X036336Y019723D01*
X036381Y019755D01*
X036429Y019784D01*
X036478Y019810D01*
X036529Y019832D01*
X036581Y019850D01*
X036635Y019864D01*
X036690Y019875D01*
X036745Y019882D01*
X036800Y019885D01*
X036856Y019884D01*
X036911Y019879D01*
X036966Y019870D01*
X037020Y019858D01*
X037073Y019841D01*
X037125Y019821D01*
X037175Y019797D01*
X037223Y019770D01*
X037270Y019740D01*
X037314Y019706D01*
X037356Y019669D01*
X037394Y019629D01*
X037431Y019587D01*
X037464Y019542D01*
X037493Y019496D01*
X037520Y019447D01*
X037542Y019396D01*
X037562Y019344D01*
X037577Y019290D01*
X037589Y019236D01*
X037597Y019181D01*
X037601Y019126D01*
X037601Y019070D01*
X037597Y019015D01*
X037589Y018960D01*
X037577Y018906D01*
X037562Y018852D01*
X037542Y018800D01*
X037520Y018749D01*
X037493Y018700D01*
X037464Y018654D01*
X037431Y018609D01*
X037394Y018567D01*
X037356Y018527D01*
X037314Y018490D01*
X037270Y018456D01*
X037223Y018426D01*
X037175Y018399D01*
X037125Y018375D01*
X037073Y018355D01*
X037020Y018338D01*
X036966Y018326D01*
X036911Y018317D01*
X036856Y018312D01*
X036800Y018311D01*
X036745Y018314D01*
X036690Y018321D01*
X036635Y018332D01*
X036581Y018346D01*
X036529Y018364D01*
X036478Y018386D01*
X036429Y018412D01*
X036381Y018441D01*
X036336Y018473D01*
X036293Y018508D01*
X036253Y018546D01*
X036215Y018587D01*
X036181Y018631D01*
X036149Y018677D01*
X036121Y018725D01*
X036097Y018775D01*
X036076Y018826D01*
X036058Y018879D01*
X036045Y018933D01*
X036035Y018987D01*
X036029Y019042D01*
X036027Y019098D01*
X036027Y002956D02*
X036029Y003012D01*
X036035Y003067D01*
X036045Y003121D01*
X036058Y003175D01*
X036076Y003228D01*
X036097Y003279D01*
X036121Y003329D01*
X036149Y003377D01*
X036181Y003423D01*
X036215Y003467D01*
X036253Y003508D01*
X036293Y003546D01*
X036336Y003581D01*
X036381Y003613D01*
X036429Y003642D01*
X036478Y003668D01*
X036529Y003690D01*
X036581Y003708D01*
X036635Y003722D01*
X036690Y003733D01*
X036745Y003740D01*
X036800Y003743D01*
X036856Y003742D01*
X036911Y003737D01*
X036966Y003728D01*
X037020Y003716D01*
X037073Y003699D01*
X037125Y003679D01*
X037175Y003655D01*
X037223Y003628D01*
X037270Y003598D01*
X037314Y003564D01*
X037356Y003527D01*
X037394Y003487D01*
X037431Y003445D01*
X037464Y003400D01*
X037493Y003354D01*
X037520Y003305D01*
X037542Y003254D01*
X037562Y003202D01*
X037577Y003148D01*
X037589Y003094D01*
X037597Y003039D01*
X037601Y002984D01*
X037601Y002928D01*
X037597Y002873D01*
X037589Y002818D01*
X037577Y002764D01*
X037562Y002710D01*
X037542Y002658D01*
X037520Y002607D01*
X037493Y002558D01*
X037464Y002512D01*
X037431Y002467D01*
X037394Y002425D01*
X037356Y002385D01*
X037314Y002348D01*
X037270Y002314D01*
X037223Y002284D01*
X037175Y002257D01*
X037125Y002233D01*
X037073Y002213D01*
X037020Y002196D01*
X036966Y002184D01*
X036911Y002175D01*
X036856Y002170D01*
X036800Y002169D01*
X036745Y002172D01*
X036690Y002179D01*
X036635Y002190D01*
X036581Y002204D01*
X036529Y002222D01*
X036478Y002244D01*
X036429Y002270D01*
X036381Y002299D01*
X036336Y002331D01*
X036293Y002366D01*
X036253Y002404D01*
X036215Y002445D01*
X036181Y002489D01*
X036149Y002535D01*
X036121Y002583D01*
X036097Y002633D01*
X036076Y002684D01*
X036058Y002737D01*
X036045Y002791D01*
X036035Y002845D01*
X036029Y002900D01*
X036027Y002956D01*
D11*
X030800Y006750D02*
X030600Y006750D01*
X030700Y006850D02*
X030700Y006650D01*
X029600Y007700D02*
X029602Y007766D01*
X029608Y007831D01*
X029618Y007896D01*
X029631Y007961D01*
X029649Y008024D01*
X029670Y008087D01*
X029695Y008147D01*
X029724Y008207D01*
X029756Y008264D01*
X029791Y008320D01*
X029830Y008373D01*
X029872Y008424D01*
X029916Y008472D01*
X029964Y008517D01*
X030014Y008560D01*
X030067Y008599D01*
X030122Y008636D01*
X030179Y008669D01*
X030238Y008698D01*
X030298Y008724D01*
X030360Y008746D01*
X030423Y008765D01*
X030487Y008779D01*
X030552Y008790D01*
X030618Y008797D01*
X030684Y008800D01*
X030749Y008799D01*
X030815Y008794D01*
X030880Y008785D01*
X030945Y008772D01*
X031008Y008756D01*
X031071Y008736D01*
X031132Y008711D01*
X031192Y008684D01*
X031250Y008653D01*
X031306Y008618D01*
X031360Y008580D01*
X031411Y008539D01*
X031460Y008495D01*
X031506Y008448D01*
X031550Y008399D01*
X031590Y008347D01*
X031627Y008292D01*
X031661Y008236D01*
X031691Y008177D01*
X031718Y008117D01*
X031741Y008056D01*
X031760Y007993D01*
X031776Y007929D01*
X031788Y007864D01*
X031796Y007799D01*
X031800Y007733D01*
X031800Y007667D01*
X031796Y007601D01*
X031788Y007536D01*
X031776Y007471D01*
X031760Y007407D01*
X031741Y007344D01*
X031718Y007283D01*
X031691Y007223D01*
X031661Y007164D01*
X031627Y007108D01*
X031590Y007053D01*
X031550Y007001D01*
X031506Y006952D01*
X031460Y006905D01*
X031411Y006861D01*
X031360Y006820D01*
X031306Y006782D01*
X031250Y006747D01*
X031192Y006716D01*
X031132Y006689D01*
X031071Y006664D01*
X031008Y006644D01*
X030945Y006628D01*
X030880Y006615D01*
X030815Y006606D01*
X030749Y006601D01*
X030684Y006600D01*
X030618Y006603D01*
X030552Y006610D01*
X030487Y006621D01*
X030423Y006635D01*
X030360Y006654D01*
X030298Y006676D01*
X030238Y006702D01*
X030179Y006731D01*
X030122Y006764D01*
X030067Y006801D01*
X030014Y006840D01*
X029964Y006883D01*
X029916Y006928D01*
X029872Y006976D01*
X029830Y007027D01*
X029791Y007080D01*
X029756Y007136D01*
X029724Y007193D01*
X029695Y007253D01*
X029670Y007313D01*
X029649Y007376D01*
X029631Y007439D01*
X029618Y007504D01*
X029608Y007569D01*
X029602Y007634D01*
X029600Y007700D01*
X026188Y007454D02*
X026188Y006954D01*
X025938Y006704D01*
X026188Y006454D01*
X026188Y005954D01*
X025938Y005704D01*
X026188Y005454D01*
X026188Y004954D01*
X025938Y004704D01*
X026188Y004454D01*
X026188Y003954D01*
X025938Y003704D01*
X026188Y003454D01*
X026188Y002954D01*
X025938Y002704D01*
X025438Y002704D01*
X025188Y002954D01*
X025188Y003454D01*
X025438Y003704D01*
X025188Y003954D01*
X025188Y004454D01*
X025438Y004704D01*
X025938Y004704D01*
X025438Y004704D02*
X025188Y004954D01*
X025188Y005454D01*
X025438Y005704D01*
X025188Y005954D01*
X025188Y006454D01*
X025438Y006704D01*
X025188Y006954D01*
X025188Y007454D01*
X025438Y007704D01*
X025188Y007954D01*
X025188Y008454D01*
X025438Y008704D01*
X025938Y008704D01*
X026188Y008454D01*
X026188Y007954D01*
X025938Y007704D01*
X026188Y007454D01*
X025938Y007704D02*
X025438Y007704D01*
X025438Y006704D02*
X025938Y006704D01*
X025938Y005704D02*
X025438Y005704D01*
X025438Y003704D02*
X025938Y003704D01*
X020680Y003700D02*
X020680Y003770D01*
X020680Y003700D02*
X017720Y003700D01*
X017720Y003770D01*
X017720Y004630D02*
X017720Y004770D01*
X017720Y005630D02*
X017720Y005770D01*
X017720Y006630D02*
X017720Y006770D01*
X017720Y007630D02*
X017720Y007770D01*
X017720Y008630D02*
X017720Y008770D01*
X017720Y009630D02*
X017720Y009770D01*
X017720Y010630D02*
X017720Y010770D01*
X017720Y011630D02*
X017720Y011770D01*
X017720Y012630D02*
X017720Y012770D01*
X017720Y013630D02*
X017720Y013770D01*
X017720Y014630D02*
X017720Y014770D01*
X017720Y015630D02*
X017720Y015770D01*
X017720Y016630D02*
X017720Y016770D01*
X017720Y017630D02*
X017720Y017700D01*
X019080Y017700D01*
X019320Y017700D01*
X020680Y017700D01*
X020680Y017630D01*
X020680Y016770D02*
X020680Y016630D01*
X020680Y015770D02*
X020680Y015630D01*
X020680Y014770D02*
X020680Y014630D01*
X020680Y013770D02*
X020680Y013630D01*
X020680Y012770D02*
X020680Y012630D01*
X020680Y011770D02*
X020680Y011630D01*
X020680Y010770D02*
X020680Y010630D01*
X020680Y009770D02*
X020680Y009630D01*
X020680Y008770D02*
X020680Y008630D01*
X020680Y007770D02*
X020680Y007630D01*
X020680Y006770D02*
X020680Y006630D01*
X020680Y005770D02*
X020680Y005630D01*
X020680Y004770D02*
X020680Y004630D01*
X013650Y010050D02*
X013650Y010200D01*
X013600Y010250D01*
X013600Y012150D01*
X013650Y012200D01*
X013650Y012350D01*
X013648Y012367D01*
X013644Y012384D01*
X013637Y012400D01*
X013627Y012414D01*
X013614Y012427D01*
X013600Y012437D01*
X013584Y012444D01*
X013567Y012448D01*
X013550Y012450D01*
X012850Y012450D01*
X012833Y012448D01*
X012816Y012444D01*
X012800Y012437D01*
X012786Y012427D01*
X012773Y012414D01*
X012763Y012400D01*
X012756Y012384D01*
X012752Y012367D01*
X012750Y012350D01*
X012750Y012200D01*
X012800Y012150D01*
X012800Y010250D01*
X012750Y010200D01*
X012750Y010050D01*
X012752Y010033D01*
X012756Y010016D01*
X012763Y010000D01*
X012773Y009986D01*
X012786Y009973D01*
X012800Y009963D01*
X012816Y009956D01*
X012833Y009952D01*
X012850Y009950D01*
X013550Y009950D01*
X013567Y009952D01*
X013584Y009956D01*
X013600Y009963D01*
X013614Y009973D01*
X013627Y009986D01*
X013637Y010000D01*
X013644Y010016D01*
X013648Y010033D01*
X013650Y010050D01*
X012150Y010050D02*
X012150Y010200D01*
X012100Y010250D01*
X012100Y012150D01*
X012150Y012200D01*
X012150Y012350D01*
X012148Y012367D01*
X012144Y012384D01*
X012137Y012400D01*
X012127Y012414D01*
X012114Y012427D01*
X012100Y012437D01*
X012084Y012444D01*
X012067Y012448D01*
X012050Y012450D01*
X011350Y012450D01*
X011333Y012448D01*
X011316Y012444D01*
X011300Y012437D01*
X011286Y012427D01*
X011273Y012414D01*
X011263Y012400D01*
X011256Y012384D01*
X011252Y012367D01*
X011250Y012350D01*
X011250Y012200D01*
X011300Y012150D01*
X011300Y010250D01*
X011250Y010200D01*
X011250Y010050D01*
X011252Y010033D01*
X011256Y010016D01*
X011263Y010000D01*
X011273Y009986D01*
X011286Y009973D01*
X011300Y009963D01*
X011316Y009956D01*
X011333Y009952D01*
X011350Y009950D01*
X012050Y009950D01*
X012067Y009952D01*
X012084Y009956D01*
X012100Y009963D01*
X012114Y009973D01*
X012127Y009986D01*
X012137Y010000D01*
X012144Y010016D01*
X012148Y010033D01*
X012150Y010050D01*
X010650Y010050D02*
X010650Y010200D01*
X010600Y010250D01*
X010600Y012150D01*
X010650Y012200D01*
X010650Y012350D01*
X010648Y012367D01*
X010644Y012384D01*
X010637Y012400D01*
X010627Y012414D01*
X010614Y012427D01*
X010600Y012437D01*
X010584Y012444D01*
X010567Y012448D01*
X010550Y012450D01*
X009850Y012450D01*
X009833Y012448D01*
X009816Y012444D01*
X009800Y012437D01*
X009786Y012427D01*
X009773Y012414D01*
X009763Y012400D01*
X009756Y012384D01*
X009752Y012367D01*
X009750Y012350D01*
X009750Y012200D01*
X009800Y012150D01*
X009800Y010250D01*
X009750Y010200D01*
X009750Y010050D01*
X009752Y010033D01*
X009756Y010016D01*
X009763Y010000D01*
X009773Y009986D01*
X009786Y009973D01*
X009800Y009963D01*
X009816Y009956D01*
X009833Y009952D01*
X009850Y009950D01*
X010550Y009950D01*
X010567Y009952D01*
X010584Y009956D01*
X010600Y009963D01*
X010614Y009973D01*
X010627Y009986D01*
X010637Y010000D01*
X010644Y010016D01*
X010648Y010033D01*
X010650Y010050D01*
X004200Y009950D02*
X004200Y009450D01*
X003950Y009200D01*
X003450Y009200D01*
X003200Y009450D01*
X003200Y009950D01*
X003450Y010200D01*
X003200Y010450D01*
X003200Y010950D01*
X003450Y011200D01*
X003950Y011200D01*
X004200Y010950D01*
X004200Y010450D01*
X003950Y010200D01*
X004200Y009950D01*
X003950Y010200D02*
X003450Y010200D01*
X003450Y011200D02*
X003200Y011450D01*
X003200Y011950D01*
X003450Y012200D01*
X003200Y012450D01*
X003200Y012950D01*
X003450Y013200D01*
X003950Y013200D01*
X004200Y012950D01*
X004200Y012450D01*
X003950Y012200D01*
X004200Y011950D01*
X004200Y011450D01*
X003950Y011200D01*
X003950Y012200D02*
X003450Y012200D01*
X023450Y013850D02*
X023450Y014550D01*
X023452Y014567D01*
X023456Y014584D01*
X023463Y014600D01*
X023473Y014614D01*
X023486Y014627D01*
X023500Y014637D01*
X023516Y014644D01*
X023533Y014648D01*
X023550Y014650D01*
X023700Y014650D01*
X023750Y014600D01*
X025650Y014600D01*
X025700Y014650D01*
X025850Y014650D01*
X025867Y014648D01*
X025884Y014644D01*
X025900Y014637D01*
X025914Y014627D01*
X025927Y014614D01*
X025937Y014600D01*
X025944Y014584D01*
X025948Y014567D01*
X025950Y014550D01*
X025950Y013850D01*
X025948Y013833D01*
X025944Y013816D01*
X025937Y013800D01*
X025927Y013786D01*
X025914Y013773D01*
X025900Y013763D01*
X025884Y013756D01*
X025867Y013752D01*
X025850Y013750D01*
X025700Y013750D01*
X025650Y013800D01*
X023750Y013800D01*
X023700Y013750D01*
X023550Y013750D01*
X023533Y013752D01*
X023516Y013756D01*
X023500Y013763D01*
X023486Y013773D01*
X023473Y013786D01*
X023463Y013800D01*
X023456Y013816D01*
X023452Y013833D01*
X023450Y013850D01*
X028200Y013950D02*
X028200Y014450D01*
X028450Y014700D01*
X028200Y014950D01*
X028200Y015450D01*
X028450Y015700D01*
X028200Y015950D01*
X028200Y016450D01*
X028450Y016700D01*
X028200Y016950D01*
X028200Y017450D01*
X028450Y017700D01*
X028200Y017950D01*
X028200Y018450D01*
X028450Y018700D01*
X028200Y018950D01*
X028200Y019450D01*
X028450Y019700D01*
X028950Y019700D01*
X029200Y019450D01*
X029200Y018950D01*
X028950Y018700D01*
X029200Y018450D01*
X029200Y017950D01*
X028950Y017700D01*
X028450Y017700D01*
X028950Y017700D02*
X029200Y017450D01*
X029200Y016950D01*
X028950Y016700D01*
X029200Y016450D01*
X029200Y015950D01*
X028950Y015700D01*
X029200Y015450D01*
X029200Y014950D01*
X028950Y014700D01*
X029200Y014450D01*
X029200Y013950D01*
X028950Y013700D01*
X028450Y013700D01*
X028200Y013950D01*
X028450Y014700D02*
X028950Y014700D01*
X028950Y015700D02*
X028450Y015700D01*
X028450Y016700D02*
X028950Y016700D01*
X028950Y018700D02*
X028450Y018700D01*
X033700Y014450D02*
X033950Y014700D01*
X034450Y014700D01*
X034700Y014450D01*
X034950Y014700D01*
X035450Y014700D01*
X035700Y014450D01*
X035950Y014700D01*
X036450Y014700D01*
X036700Y014450D01*
X036700Y013950D01*
X036450Y013700D01*
X035950Y013700D01*
X035700Y013950D01*
X035450Y013700D01*
X034950Y013700D01*
X034700Y013950D01*
X034450Y013700D01*
X033950Y013700D01*
X033700Y013950D01*
X033700Y014450D01*
X034700Y014450D02*
X034700Y013950D01*
X035700Y013950D02*
X035700Y014450D01*
X030800Y012150D02*
X030600Y012150D01*
X030700Y012050D02*
X030700Y012250D01*
X029600Y011200D02*
X029602Y011266D01*
X029608Y011331D01*
X029618Y011396D01*
X029631Y011461D01*
X029649Y011524D01*
X029670Y011587D01*
X029695Y011647D01*
X029724Y011707D01*
X029756Y011764D01*
X029791Y011820D01*
X029830Y011873D01*
X029872Y011924D01*
X029916Y011972D01*
X029964Y012017D01*
X030014Y012060D01*
X030067Y012099D01*
X030122Y012136D01*
X030179Y012169D01*
X030238Y012198D01*
X030298Y012224D01*
X030360Y012246D01*
X030423Y012265D01*
X030487Y012279D01*
X030552Y012290D01*
X030618Y012297D01*
X030684Y012300D01*
X030749Y012299D01*
X030815Y012294D01*
X030880Y012285D01*
X030945Y012272D01*
X031008Y012256D01*
X031071Y012236D01*
X031132Y012211D01*
X031192Y012184D01*
X031250Y012153D01*
X031306Y012118D01*
X031360Y012080D01*
X031411Y012039D01*
X031460Y011995D01*
X031506Y011948D01*
X031550Y011899D01*
X031590Y011847D01*
X031627Y011792D01*
X031661Y011736D01*
X031691Y011677D01*
X031718Y011617D01*
X031741Y011556D01*
X031760Y011493D01*
X031776Y011429D01*
X031788Y011364D01*
X031796Y011299D01*
X031800Y011233D01*
X031800Y011167D01*
X031796Y011101D01*
X031788Y011036D01*
X031776Y010971D01*
X031760Y010907D01*
X031741Y010844D01*
X031718Y010783D01*
X031691Y010723D01*
X031661Y010664D01*
X031627Y010608D01*
X031590Y010553D01*
X031550Y010501D01*
X031506Y010452D01*
X031460Y010405D01*
X031411Y010361D01*
X031360Y010320D01*
X031306Y010282D01*
X031250Y010247D01*
X031192Y010216D01*
X031132Y010189D01*
X031071Y010164D01*
X031008Y010144D01*
X030945Y010128D01*
X030880Y010115D01*
X030815Y010106D01*
X030749Y010101D01*
X030684Y010100D01*
X030618Y010103D01*
X030552Y010110D01*
X030487Y010121D01*
X030423Y010135D01*
X030360Y010154D01*
X030298Y010176D01*
X030238Y010202D01*
X030179Y010231D01*
X030122Y010264D01*
X030067Y010301D01*
X030014Y010340D01*
X029964Y010383D01*
X029916Y010428D01*
X029872Y010476D01*
X029830Y010527D01*
X029791Y010580D01*
X029756Y010636D01*
X029724Y010693D01*
X029695Y010753D01*
X029670Y010813D01*
X029649Y010876D01*
X029631Y010939D01*
X029618Y011004D01*
X029608Y011069D01*
X029602Y011134D01*
X029600Y011200D01*
X035250Y008200D02*
X035450Y008200D01*
X033950Y008200D02*
X033952Y008283D01*
X033958Y008366D01*
X033968Y008449D01*
X033982Y008531D01*
X033999Y008613D01*
X034021Y008693D01*
X034046Y008772D01*
X034075Y008850D01*
X034108Y008927D01*
X034145Y009002D01*
X034184Y009075D01*
X034228Y009146D01*
X034274Y009215D01*
X034324Y009282D01*
X034377Y009346D01*
X034433Y009408D01*
X034492Y009467D01*
X034554Y009523D01*
X034618Y009576D01*
X034685Y009626D01*
X034754Y009672D01*
X034825Y009716D01*
X034898Y009755D01*
X034973Y009792D01*
X035050Y009825D01*
X035128Y009854D01*
X035207Y009879D01*
X035287Y009901D01*
X035369Y009918D01*
X035451Y009932D01*
X035534Y009942D01*
X035617Y009948D01*
X035700Y009950D01*
X035783Y009948D01*
X035866Y009942D01*
X035949Y009932D01*
X036031Y009918D01*
X036113Y009901D01*
X036193Y009879D01*
X036272Y009854D01*
X036350Y009825D01*
X036427Y009792D01*
X036502Y009755D01*
X036575Y009716D01*
X036646Y009672D01*
X036715Y009626D01*
X036782Y009576D01*
X036846Y009523D01*
X036908Y009467D01*
X036967Y009408D01*
X037023Y009346D01*
X037076Y009282D01*
X037126Y009215D01*
X037172Y009146D01*
X037216Y009075D01*
X037255Y009002D01*
X037292Y008927D01*
X037325Y008850D01*
X037354Y008772D01*
X037379Y008693D01*
X037401Y008613D01*
X037418Y008531D01*
X037432Y008449D01*
X037442Y008366D01*
X037448Y008283D01*
X037450Y008200D01*
X037448Y008117D01*
X037442Y008034D01*
X037432Y007951D01*
X037418Y007869D01*
X037401Y007787D01*
X037379Y007707D01*
X037354Y007628D01*
X037325Y007550D01*
X037292Y007473D01*
X037255Y007398D01*
X037216Y007325D01*
X037172Y007254D01*
X037126Y007185D01*
X037076Y007118D01*
X037023Y007054D01*
X036967Y006992D01*
X036908Y006933D01*
X036846Y006877D01*
X036782Y006824D01*
X036715Y006774D01*
X036646Y006728D01*
X036575Y006684D01*
X036502Y006645D01*
X036427Y006608D01*
X036350Y006575D01*
X036272Y006546D01*
X036193Y006521D01*
X036113Y006499D01*
X036031Y006482D01*
X035949Y006468D01*
X035866Y006458D01*
X035783Y006452D01*
X035700Y006450D01*
X035617Y006452D01*
X035534Y006458D01*
X035451Y006468D01*
X035369Y006482D01*
X035287Y006499D01*
X035207Y006521D01*
X035128Y006546D01*
X035050Y006575D01*
X034973Y006608D01*
X034898Y006645D01*
X034825Y006684D01*
X034754Y006728D01*
X034685Y006774D01*
X034618Y006824D01*
X034554Y006877D01*
X034492Y006933D01*
X034433Y006992D01*
X034377Y007054D01*
X034324Y007118D01*
X034274Y007185D01*
X034228Y007254D01*
X034184Y007325D01*
X034145Y007398D01*
X034108Y007473D01*
X034075Y007550D01*
X034046Y007628D01*
X034021Y007707D01*
X033999Y007787D01*
X033982Y007869D01*
X033968Y007951D01*
X033958Y008034D01*
X033952Y008117D01*
X033950Y008200D01*
X035800Y007750D02*
X036050Y007750D01*
X036050Y008200D01*
X036050Y008650D01*
X035800Y008650D01*
X035800Y007750D01*
X036050Y008200D02*
X036150Y008200D01*
X037000Y007700D02*
X037000Y007400D01*
X037150Y007550D02*
X036850Y007550D01*
D12*
X017799Y017643D02*
X017485Y017957D01*
X017485Y017800D02*
X017799Y017800D01*
X017799Y017957D02*
X017485Y017643D01*
X017642Y017643D02*
X017642Y017957D01*
D13*
X017660Y018120D02*
X017413Y018120D01*
X017290Y018243D01*
X017290Y018861D01*
X017784Y018861D02*
X017784Y018243D01*
X017660Y018120D01*
X018045Y018120D02*
X018539Y018614D01*
X018539Y018737D01*
X018415Y018861D01*
X018168Y018861D01*
X018045Y018737D01*
X018045Y018120D02*
X018539Y018120D01*
D14*
X022950Y014200D02*
X023100Y014200D01*
X026300Y014200D02*
X026450Y014200D01*
X013200Y012950D02*
X013200Y012800D01*
X011700Y012800D02*
X011700Y012950D01*
X010200Y012950D02*
X010200Y012800D01*
X010200Y009600D02*
X010200Y009450D01*
X011700Y009450D02*
X011700Y009600D01*
X013200Y009600D02*
X013200Y009450D01*
D15*
X012725Y011554D02*
X012275Y011554D01*
X012275Y011779D01*
X012350Y011854D01*
X012500Y011854D01*
X012575Y011779D01*
X012575Y011554D01*
X012575Y011704D02*
X012725Y011854D01*
X012650Y012015D02*
X012725Y012090D01*
X012725Y012240D01*
X012650Y012315D01*
X012500Y012315D01*
X012425Y012240D01*
X012425Y012165D01*
X012500Y012015D01*
X012275Y012015D01*
X012275Y012315D01*
X011225Y012015D02*
X011150Y012015D01*
X010850Y012315D01*
X010775Y012315D01*
X010775Y012015D01*
X010850Y011854D02*
X011000Y011854D01*
X011075Y011779D01*
X011075Y011554D01*
X011225Y011554D02*
X010775Y011554D01*
X010775Y011779D01*
X010850Y011854D01*
X011075Y011704D02*
X011225Y011854D01*
X013775Y011779D02*
X013775Y011554D01*
X014225Y011554D01*
X014075Y011554D02*
X014075Y011779D01*
X014000Y011854D01*
X013850Y011854D01*
X013775Y011779D01*
X014075Y011704D02*
X014225Y011854D01*
X014150Y012015D02*
X014225Y012090D01*
X014225Y012240D01*
X014150Y012315D01*
X014075Y012315D01*
X014000Y012240D01*
X014000Y012015D01*
X014150Y012015D01*
X014000Y012015D02*
X013850Y012165D01*
X013775Y012315D01*
X002955Y010416D02*
X002955Y010116D01*
X002955Y010266D02*
X002505Y010266D01*
X002655Y010116D01*
X002730Y009956D02*
X002805Y009881D01*
X002805Y009655D01*
X002955Y009655D02*
X002505Y009655D01*
X002505Y009881D01*
X002580Y009956D01*
X002730Y009956D01*
X002505Y009495D02*
X002505Y009345D01*
X002505Y009420D02*
X002880Y009420D01*
X002955Y009345D01*
X002955Y009270D01*
X002880Y009195D01*
X024493Y003845D02*
X024718Y003620D01*
X024718Y003920D01*
X024943Y003845D02*
X024493Y003845D01*
X024568Y003460D02*
X024718Y003460D01*
X024793Y003385D01*
X024793Y003159D01*
X024943Y003159D02*
X024493Y003159D01*
X024493Y003385D01*
X024568Y003460D01*
X024493Y002999D02*
X024493Y002849D01*
X024493Y002924D02*
X024868Y002924D01*
X024943Y002849D01*
X024943Y002774D01*
X024868Y002699D01*
X033174Y006900D02*
X033249Y006825D01*
X033399Y006825D01*
X033474Y006900D01*
X033635Y006900D02*
X033710Y006825D01*
X033860Y006825D01*
X033935Y006900D01*
X033935Y007050D01*
X033860Y007125D01*
X033785Y007125D01*
X033635Y007050D01*
X033635Y007275D01*
X033935Y007275D01*
X033474Y007200D02*
X033399Y007275D01*
X033249Y007275D01*
X033174Y007200D01*
X033174Y006900D01*
X030075Y008850D02*
X030000Y008775D01*
X029700Y008775D01*
X029625Y008850D01*
X029625Y009000D01*
X029700Y009075D01*
X029850Y009235D02*
X029850Y009461D01*
X029925Y009536D01*
X030000Y009536D01*
X030075Y009461D01*
X030075Y009310D01*
X030000Y009235D01*
X029850Y009235D01*
X029700Y009386D01*
X029625Y009536D01*
X030000Y009075D02*
X030075Y009000D01*
X030075Y008850D01*
X031325Y009329D02*
X031325Y009479D01*
X031400Y009554D01*
X031550Y009715D02*
X031550Y010015D01*
X031775Y009940D02*
X031325Y009940D01*
X031550Y009715D01*
X031700Y009554D02*
X031775Y009479D01*
X031775Y009329D01*
X031700Y009254D01*
X031400Y009254D01*
X031325Y009329D01*
X025815Y013175D02*
X025515Y013175D01*
X025665Y013175D02*
X025665Y013625D01*
X025515Y013475D01*
X025354Y013400D02*
X025279Y013325D01*
X025054Y013325D01*
X025054Y013175D02*
X025054Y013625D01*
X025279Y013625D01*
X025354Y013550D01*
X025354Y013400D01*
X025204Y013325D02*
X025354Y013175D01*
X033695Y015020D02*
X033770Y014945D01*
X033845Y014945D01*
X033920Y015020D01*
X033920Y015395D01*
X033845Y015395D02*
X033995Y015395D01*
X034155Y015395D02*
X034381Y015395D01*
X034456Y015320D01*
X034456Y015170D01*
X034381Y015095D01*
X034155Y015095D01*
X034155Y014945D02*
X034155Y015395D01*
X034616Y015320D02*
X034691Y015395D01*
X034841Y015395D01*
X034916Y015320D01*
X034916Y015245D01*
X034616Y014945D01*
X034916Y014945D01*
X029895Y018449D02*
X029820Y018374D01*
X029895Y018449D02*
X029895Y018524D01*
X029820Y018599D01*
X029445Y018599D01*
X029445Y018524D02*
X029445Y018674D01*
X029445Y018834D02*
X029445Y019059D01*
X029520Y019134D01*
X029670Y019134D01*
X029745Y019059D01*
X029745Y018834D01*
X029895Y018834D02*
X029445Y018834D01*
X029520Y019295D02*
X029445Y019370D01*
X029445Y019520D01*
X029520Y019595D01*
X029595Y019595D01*
X029670Y019520D01*
X029745Y019595D01*
X029820Y019595D01*
X029895Y019520D01*
X029895Y019370D01*
X029820Y019295D01*
X029670Y019445D02*
X029670Y019520D01*
D16*
X013200Y013120D03*
X013200Y012620D03*
X011700Y012620D03*
X011700Y013120D03*
X010200Y013120D03*
X010200Y012620D03*
X010200Y009780D03*
X010200Y009280D03*
X011700Y009280D03*
X011700Y009780D03*
X013200Y009780D03*
X013200Y009280D03*
D17*
X035475Y008200D03*
D18*
X026620Y014200D03*
X026120Y014200D03*
X023280Y014200D03*
X022780Y014200D03*
M02*
